<svg viewBox="0 0 960 960"  xmlns="http://www.w3.org/2000/svg">
  <path d="M480,132 Q416,132 360,156 Q304,180 262,222 Q220,264 196,320 Q172,376 172,440 Q172,504 196,560 Q220,616 262,658 Q304,700 360,724 Q416,748 480,748 Q544,748 600,724 Q656,700 698,658 Q740,616 764,560 Q788,504 788,440 Q788,376 764,320 Q740,264 698,222 Q656,180 600,156 Q544,132 480,132 Z M480,230 Q393,230 331.5,291.5 Q270,353 270,440 Q270,527 331.5,588.5 Q393,650 480,650 Q567,650 628.5,588.5 Q690,527 690,440 Q690,353 628.5,291.5 Q567,230 480,230 Z M610,290 L630,310 L494,446 L494,640 L466,640 L466,434 Z M240,810 L260,790 L130,660 L110,680 Z M720,810 L850,680 L830,660 L700,790 Z M480,160 Q596,160 678,242 Q760,324 760,440 Q760,556 678,638 Q596,720 480,720 Q364,720 282,638 Q200,556 200,440 Q200,324 282,242 Q364,160 480,160 Z" fill="lightblue"/>
</svg>
